<?xml version="1.0" encoding="iso-8859-1"?>
<!-- Generator: Adobe Illustrator 16.0.0, SVG Export Plug-In . SVG Version: 6.00 Build 0)  -->
<!DOCTYPE svg PUBLIC "-//W3C//DTD SVG 1.1//EN" "http://www.w3.org/Graphics/SVG/1.1/DTD/svg11.dtd">
<svg version="1.1" id="Capa_1" xmlns="http://www.w3.org/2000/svg" xmlns:xlink="http://www.w3.org/1999/xlink" x="0px" y="0px"
	 width="23.147px" height="31.683px" viewBox="0 0 23.147 31.683" style="enable-background:new 0 0 23.147 31.683;"
	 xml:space="preserve">
<path d="M17.942,7.51V2.308C17.942,1.033,16.91,0,15.635,0H2.304C1.029,0,0,1.033,0,2.308v27.069c0,1.273,1.029,2.306,2.304,2.306
	h13.331c1.275,0,2.307-1.032,2.307-2.306v-7.114c3.031-1.083,5.205-3.973,5.205-7.376C23.147,11.482,20.973,8.594,17.942,7.51z
	 M14.115,1.444c0.326,0,0.591,0.264,0.591,0.59c0,0.326-0.265,0.59-0.591,0.59s-0.59-0.264-0.59-0.59
	C13.525,1.708,13.79,1.444,14.115,1.444z M5.88,1.669h6.181v0.675H5.88V1.669z M11.785,29.222H6.156v-1.731h5.629V29.222z
	 M16.214,25.672H1.729V3.893h14.486v3.21c-0.299-0.036-0.601-0.057-0.909-0.057c-4.33,0-7.841,3.509-7.841,7.841
	c0,4.331,3.511,7.841,7.841,7.841c0.308,0,0.61-0.022,0.909-0.057V25.672z M17.942,20.697c-0.54,0.245-1.121,0.417-1.728,0.502
	c-0.298,0.043-0.6,0.073-0.909,0.073c-3.527,0-6.386-2.859-6.386-6.386c0-3.528,2.859-6.385,6.386-6.385
	c0.309,0,0.611,0.028,0.909,0.071c0.607,0.087,1.188,0.257,1.728,0.503c2.209,1.005,3.748,3.225,3.748,5.811
	C21.69,17.471,20.151,19.692,17.942,20.697z"/>
<polygon points="16.657,10.788 14.078,10.788 14.078,13.726 11.077,13.726 11.077,16.305 14.078,16.305 14.078,19.332 
	16.657,19.332 16.657,16.305 19.621,16.305 19.621,13.726 16.657,13.726 "/>
<g>
</g>
<g>
</g>
<g>
</g>
<g>
</g>
<g>
</g>
<g>
</g>
<g>
</g>
<g>
</g>
<g>
</g>
<g>
</g>
<g>
</g>
<g>
</g>
<g>
</g>
<g>
</g>
<g>
</g>
</svg>
