<?xml version="1.0" encoding="utf-8"?>
<!-- Generator: Adobe Illustrator 16.0.4, SVG Export Plug-In . SVG Version: 6.00 Build 0)  -->
<!DOCTYPE svg PUBLIC "-//W3C//DTD SVG 1.1//EN" "http://www.w3.org/Graphics/SVG/1.1/DTD/svg11.dtd">
<svg version="1.1" id="Capa_1" xmlns="http://www.w3.org/2000/svg" xmlns:xlink="http://www.w3.org/1999/xlink" x="0px" y="0px"
	 width="33.625px" height="36.266px" viewBox="0 0 33.625 36.266" enable-background="new 0 0 33.625 36.266" xml:space="preserve">
<path d="M0,10.638v14.989c0,1.25,1.021,2.271,2.271,2.271h29.084c1.248,0,2.27-1.021,2.27-2.271V10.638
	c0-1.248-1.021-2.271-2.27-2.271H2.271C1.021,8.366,0,9.39,0,10.638z M1.636,20.53v-4.794c0-0.152,0.123-0.274,0.275-0.274
	c0.152,0,0.275,0.123,0.275,0.274v4.794c0,0.152-0.123,0.275-0.275,0.275C1.759,20.807,1.636,20.684,1.636,20.53z M32.492,18.133
	c0,0.627-0.51,1.136-1.137,1.136s-1.139-0.508-1.139-1.136c0-0.627,0.512-1.136,1.139-1.136S32.492,17.507,32.492,18.133z
	 M29.421,9.948v16.373H3.601V9.948H29.421z M16.902,24.112l-1.32-7.481l-1.42,4.673l-1.127-3.208l-0.455,0.848H6.576
	c-0.289,0-0.52-0.232-0.52-0.521s0.23-0.521,0.52-0.521h5.381l1.279-2.375l0.854,2.428l1.76-5.795l1.336,7.547l1.208-3.884
	l1.252,3.116l0.522-1.04h6.351c0.289,0,0.521,0.232,0.521,0.521s-0.231,0.521-0.521,0.521h-5.707l-1.275,2.525l-1.018-2.541
	L16.902,24.112z"/>
</svg>
