<?xml version="1.0" encoding="iso-8859-1"?>
<!-- Generator: Adobe Illustrator 16.0.4, SVG Export Plug-In . SVG Version: 6.00 Build 0)  -->
<!DOCTYPE svg PUBLIC "-//W3C//DTD SVG 1.1//EN" "http://www.w3.org/Graphics/SVG/1.1/DTD/svg11.dtd">
<svg version="1.1" id="Capa_1" xmlns="http://www.w3.org/2000/svg" xmlns:xlink="http://www.w3.org/1999/xlink" x="0px" y="0px"
	 width="32.95px" height="34.999px" viewBox="0 0 32.95 34.999" style="enable-background:new 0 0 32.95 34.999;"
	 xml:space="preserve">
<path d="M32.739,10.466H20.331V2.364C20.331,1.063,19.268,0,17.968,0H2.364C1.063,0,0,1.063,0,2.364v30.271
	c0,1.301,1.063,2.364,2.364,2.364h15.604c1.3,0,2.363-1.063,2.363-2.364v-6.984h5.662h1.268l0.07-0.189l5.16-13.77l0.459-1.227
	L32.739,10.466L32.739,10.466z M12.304,12.546l4.133,4.541l-8.475,7.048L12.304,12.546z M13.194,11.564h17.724l-11.445,6.895
	L13.194,11.564z M7.669,1.705h4.992c0.158,0,0.287,0.128,0.287,0.286c0,0.157-0.129,0.286-0.287,0.286H7.669
	c-0.158,0-0.285-0.129-0.285-0.286C7.384,1.833,7.511,1.705,7.669,1.705z M10.165,33.819c-0.652,0-1.182-0.529-1.182-1.183
	c0-0.652,0.529-1.182,1.182-1.182s1.183,0.529,1.183,1.182C11.348,33.29,10.818,33.819,10.165,33.819z M18.686,30.626H1.644V3.75
	h17.042v6.717h-6.491h-0.21l-0.298,0.794H3.451v1.813h7.557l-0.605,1.615H5.929v1.36h3.964l-0.512,1.366H6.775v1.104h2.192
	l-2.601,6.94L6.295,25.65h1.267h11.125L18.686,30.626L18.686,30.626z M8.882,24.554l8.169-6.793l1.901,2.088l3.465-2.088
	l3.079,6.793H8.882z M26.731,24.136l-3.195-7.049l7.537-4.541L26.731,24.136z"/>
<g>
</g>
<g>
</g>
<g>
</g>
<g>
</g>
<g>
</g>
<g>
</g>
<g>
</g>
<g>
</g>
<g>
</g>
<g>
</g>
<g>
</g>
<g>
</g>
<g>
</g>
<g>
</g>
<g>
</g>
</svg>
