<?xml version="1.0" encoding="utf-8"?>
<!-- Generator: Adobe Illustrator 16.0.0, SVG Export Plug-In . SVG Version: 6.00 Build 0)  -->
<!DOCTYPE svg PUBLIC "-//W3C//DTD SVG 1.1//EN" "http://www.w3.org/Graphics/SVG/1.1/DTD/svg11.dtd">
<svg version="1.1" id="Artwork" xmlns="http://www.w3.org/2000/svg" xmlns:xlink="http://www.w3.org/1999/xlink" x="0px" y="0px"
	 width="512px" height="512px" viewBox="0 0 512 512" enable-background="new 0 0 512 512" xml:space="preserve">
<g>
	<path d="M144.165,191.631H64.884c-1.56,0-3.028,0.044-3.268,0.044c-5.531,0-8.188,4.113-8.188,8.579
		c0,4.464,3.074,8.577,8.188,8.577c0.239,0,1.708,0.043,3.268,0.043h79.281c1.56,0,2.835-1.275,2.835-2.835v-11.573
		C147,192.906,145.725,191.631,144.165,191.631z"/>
	<path d="M144.165,226.029H82.5c-1.56,0-3.028,0.044-3.268,0.044c-5.531,0-8.188,4.113-8.188,8.579c0,4.464,3.074,8.577,8.188,8.577
		c0.239,0,1.708,0.043,3.268,0.043h61.665c1.56,0,2.835-1.275,2.835-2.835v-11.573C147,227.304,145.725,226.029,144.165,226.029z"/>
	<path d="M144.165,260.945h-42.161c-1.56,0-3.028,0.044-3.268,0.044c-5.531,0-8.188,4.113-8.188,8.579
		c0,4.464,3.074,8.577,8.188,8.577c0.239,0,1.708,0.043,3.268,0.043h42.161c1.56,0,2.835-1.275,2.835-2.835V263.78
		C147,262.22,145.725,260.945,144.165,260.945z"/>
	<path d="M443.873,217.96l-4.883-1.347c-1.994-0.55-4.177-2.549-4.85-4.443c-0.674-1.893-2.074-8.106-1.054-9.905l2.457-4.33
		c1.021-1.8,0.66-4.469-0.804-5.932l-12.887-12.888c-1.463-1.463-4.133-1.824-5.932-0.804l-4.072,2.312
		c-1.801,1.021-4.796,1.117-6.656,0.213l-3.98-1.67c-1.947-0.702-3.989-2.908-4.539-4.903l-1.392-5.042
		c-0.55-1.995-2.692-3.626-4.763-3.626h-18.229c-2.07,0-4.213,1.631-4.763,3.626l-1.392,5.042c-0.55,1.995-2.591,4.205-4.536,4.911
		l-4.337,1.84c-1.856,0.914-4.847,0.827-6.646-0.195l-3.812-2.164c-1.8-1.021-4.468-0.66-5.933,0.803l-12.89,12.889
		c-1.464,1.462-1.825,4.132-0.804,5.931l2.412,4.248c1.021,1.799,1.188,4.71,0.37,6.468s-4.147,7.069-6.142,7.619l-4.883,1.347
		c-1.994,0.55-3.626,2.693-3.626,4.762v18.228c0,2.069,1.632,4.212,3.626,4.762l4.883,1.347c1.994,0.55,5.427,6.121,6.301,7.969
		c0.875,1.848,0.755,4.832-0.268,6.632l-2.199,3.874c-1.022,1.799-0.661,4.469,0.803,5.932l12.891,12.889
		c1.463,1.463,4.132,1.824,5.932,0.804l3.699-2.1c1.8-1.021,4.795-1.118,6.658-0.217l4.049,1.692
		c1.947,0.699,3.991,2.902,4.541,4.897l1.303,4.724c0.549,1.994,2.691,3.626,4.762,3.626h18.229c2.07,0,4.213-1.632,4.762-3.626
		l1.303-4.724c0.55-1.995,2.595-4.194,4.544-4.888l3.693-1.527c1.868-0.891,4.868-0.782,6.668,0.239l3.956,2.245
		c1.799,1.021,4.468,0.66,5.932-0.803l12.891-12.889c1.463-1.463,1.824-4.132,0.803-5.932l-2.248-3.957
		c-1.021-1.8-1.128-4.799-0.238-6.667l1.516-3.651c0.695-1.948,2.896-3.993,4.891-4.543l4.883-1.347
		c1.994-0.55,3.626-2.693,3.626-4.762v-18.228C447.499,220.653,445.867,218.51,443.873,217.96z M381.405,265.893
		c-18.89,0-34.204-15.315-34.204-34.205c0-18.892,15.314-34.207,34.204-34.207s34.204,15.315,34.204,34.207
		C415.609,250.578,400.295,265.893,381.405,265.893z"/>
	<path d="M386.997,311.954c0,0-12.892-0.024-13.188-0.038c0,0-2.406-0.01-2.406,4.115c0,17.587,0,70.348,0,70.348
		c0,2.823-2.262,5.133-5.021,5.133H182.487c-2.76,0-5.021-2.31-5.021-5.133V129.634c0-2.823,2.262-5.132,5.021-5.132h183.895
		c2.76,0,5.021,2.309,5.021,5.132c0,0,0,13.891,0,18.521c0,3.375,3.031,3.305,3.031,3.305c0.296-0.015,12.5-0.039,12.5-0.039
		s2.65,0.046,2.65-3.142c0-11.247,0-44.986,0-44.986c0-11.67-9.496-21.162-21.16-21.162H180.44c-11.672,0-21.16,9.492-21.16,21.162
		v308.975c0,11.666,9.488,21.161,21.16,21.161h187.984c11.664,0,21.16-9.495,21.16-21.161c0,0,0-72.085,0-96.113
		C389.585,312.093,386.997,311.954,386.997,311.954z M251.245,103.715h46.375c2.213,0,4.01,1.794,4.01,4.012
		c0,2.215-1.797,4.009-4.01,4.009h-46.375c-2.217,0-4.008-1.794-4.008-4.009C247.237,105.509,249.028,103.715,251.245,103.715z
		 M277.333,417.384h-5.795c-3.859-1.227-6.658-4.836-6.658-9.099c0-5.272,4.275-9.55,9.549-9.55c5.271,0,9.551,4.277,9.551,9.55
		C283.979,412.548,281.188,416.158,277.333,417.384z"/>
</g>
</svg>
